<svg viewBox="0 0 16 16" fill-rule="evenodd" xmlns="http://www.w3.org/2000/svg">
  <path d="M7,2h2v1h-2z M6,3h1v1h-1z M9,3h1v1h-1z M5,4h1v1h-1z M10,4h1v1h-1z M4,5h1v1h-1z M11,5h1v1h-1z M3,6h1v1h-1z M12,6h1v1h-1z M2,7h1v1h-1z M13,7h1v1h-1z M2,8h1v1h-1z M13,8h1v1h-1z M3,9h1v1h-1z M12,9h1v1h-1z M4,10h1v1h-1z M11,10h1v1h-1z M5,11h1v1h-1z M10,11h1v1h-1z M6,12h1v1h-1z M9,12h1v1h-1z M7,13h2v1h-2z" transform="translate(0, 1)" fill="#181818" />
  <path d="M7,2h2v1h-2z M6,3h1v1h-1z M9,3h1v1h-1z M5,4h1v1h-1z M10,4h1v1h-1z M4,5h1v1h-1z M11,5h1v1h-1z M3,6h1v1h-1z M12,6h1v1h-1z M2,7h1v1h-1z M13,7h1v1h-1z M2,8h1v1h-1z M13,8h1v1h-1z M3,9h1v1h-1z M12,9h1v1h-1z M4,10h1v1h-1z M11,10h1v1h-1z M5,11h1v1h-1z M10,11h1v1h-1z M6,12h1v1h-1z M9,12h1v1h-1z M7,13h2v1h-2z" fill="currentColor" />
</svg>
