<svg viewBox="0 0 16 16" fill-rule="evenodd" xmlns="http://www.w3.org/2000/svg">
  <path d="M7,2h2v1h-2z M6,3h4v1h-4z M5,4h6v1h-6z M4,5h8v1h-8z M3,6h10v1h-10z M2,7h12v1h-12z M2,8h12v1h-12z M3,9h10v1h-10z M4,10h8v1h-8z M5,11h6v1h-6z M6,12h4v1h-4z M7,13h2v1h-2z" transform="translate(0, 1)" fill="#181818" />
  <path d="M7,2h2v1h-2z M6,3h4v1h-4z M5,4h6v1h-6z M4,5h8v1h-8z M3,6h10v1h-10z M2,7h12v1h-12z M2,8h12v1h-12z M3,9h10v1h-10z M4,10h8v1h-8z M5,11h6v1h-6z M6,12h4v1h-4z M7,13h2v1h-2z" fill="currentColor" />
</svg>
